<?xml version="1.0" encoding="iso-8859-1"?>
<!-- Generator: Adobe Illustrator 21.0.0, SVG Export Plug-In . SVG Version: 6.00 Build 0)  -->
<svg version="1.1" id="Layer_1" xmlns="http://www.w3.org/2000/svg" xmlns:xlink="http://www.w3.org/1999/xlink" x="0px" y="0px"
	 viewBox="0 0 960 560" xml:space="preserve">
<path style="fill:#FFFFFF;" d="M55,561c0-186.667,0-373.333,0-560c283.667,0,567.333,0,851,0c0,186.667,0,373.333,0,560
	C622.333,561,338.667,561,55,561z M388,248h-74.822c-4.299,33.503-8.564,66.356-12.829,99.21c-0.28-0.013-0.56-0.026-0.84-0.039
	c-4.77-32.927-9.54-65.854-14.305-98.17H211c0,0,0,219.403,0,219h50V329.569c0,0,1.008-0.031,1.29-0.047
	C268.858,375.774,282.008,469,282.008,469h35.8c0,0,12.186-92.947,18.256-138.939c0.472,0.03,1.937,0.09,1.937,0.09V469h50V248z
	 M479.271,247.386c23.594-22.983,45.028-46.879,62.014-74.459c9.94-16.139,18.125-33.112,22.578-51.628
	c5.153-21.422,6.682-42.891-1.695-63.938c-14.558-36.576-54.596-60.463-93.893-54.599c-37.015,5.523-62.669,26.332-74.155,62.372
	c-6.657,20.89-3.81,42.158,2.624,62.724C411.823,176.055,444.311,212.329,479.271,247.386z M134.125,314h54.56
	c-0.692-11.058-1.126-21.808-2.092-32.509c-1.324-14.669-9.559-24.495-22.753-30.278c-23.837-10.447-48.234-11.093-72.566-2.389
	c-16.875,6.037-26.807,18.478-28.555,36.622c-0.806,8.367-1.326,16.814-1.175,25.211c0.373,20.779,8.081,37.737,26.091,49.515
	c13.597,8.892,26.682,18.565,40.035,27.833c5.433,3.771,8.687,8.904,9.362,15.4c0.625,6.013,1.006,12.087,0.903,18.124
	c-0.051,2.995-1.066,6.129-2.294,8.914c-1.849,4.194-5.956,5.977-10.708,5.265c-4.409-0.661-6.864-3.328-7.288-7.672
	c-0.43-4.402-0.745-8.828-0.813-13.249c-0.126-8.23-0.036-16.464-0.036-24.786H62.464c0.885,13.688,1.35,27.099,2.71,40.419
	c1.88,18.405,13.105,29.723,29.531,36.639c14.56,6.13,29.793,7.084,45.27,5.685c12.556-1.135,24.282-4.896,34.835-11.977
	c8.507-5.709,13.978-13.439,15.877-23.592c3.245-17.343,2.813-34.676-0.01-52.051c-2.114-13.013-9.225-24.72-19.803-32.59
	c-9.907-7.371-20.153-14.293-30.313-21.32c-5.587-3.864-11.587-7.178-16.889-11.385c-2.932-2.326-5.174-5.442-6.42-8.971
	c-2.464-6.984-2.61-14.36-0.933-21.642c1.343-5.837,5.091-8.84,10.215-8.511c4.797,0.308,7.112,2.577,7.485,9.159
	C134.468,297.792,134.125,305.767,134.125,314z M547.001,390c0.987,14.057,1.565,27.908,3.034,41.663
	c1.559,14.604,9.454,25.556,22.503,32.002c28.148,13.905,56.44,13.617,84.248-1.12c11.509-6.099,17.732-16.199,19.43-29.086
	c2.119-16.094,1.989-32.14-0.77-48.17c-2.201-12.787-7.884-23.629-18.249-31.474c-10.365-7.845-21.147-15.144-31.829-22.564
	c-5.581-3.876-11.611-7.148-16.953-11.314c-8.272-6.45-11.286-25.829-5.856-34.785c2.262-3.73,5.655-5.104,9.852-4.39
	c4.192,0.713,5.945,3.701,6.146,7.589c0.351,6.789,0.479,13.589,0.675,20.386c0.05,1.718,0.007,3.438,0.007,5.263
	c18.108,0,35.651,0,54.167,0c-0.675-11.013-1.094-21.759-2.048-32.456c-1.327-14.87-9.694-24.768-23.087-30.564
	c-23.897-10.341-48.313-10.97-72.638-2.14c-16.888,6.13-26.645,18.713-28.329,36.852c-0.764,8.232-1.283,16.535-1.14,24.793
	c0.361,20.789,7.993,37.797,26.018,49.608c13.725,8.993,26.951,18.748,40.424,28.127c5.45,3.794,8.492,9.065,9.177,15.535
	c0.606,5.724,1.031,11.514,0.864,17.256c-0.096,3.293-1.1,6.742-2.466,9.774c-1.944,4.314-5.968,5.498-10.438,4.979
	c-4.419-0.513-6.929-3.172-7.401-7.542c-0.428-3.96-0.778-7.946-0.835-11.925c-0.123-8.691-0.038-17.385-0.038-26.295
	C583.43,390,565.885,390,547.001,390z M412,247.619c0,73.858,0,147.119,0,220.381c19.051,0,37.763,0,57,0
	c0-29.811,0-59.374,0-89.241c6.221,0,11.932,0.237,17.614-0.065c5.982-0.318,12.029-0.68,17.886-1.845
	c17.951-3.57,27.528-12.571,28.782-30.649c1.383-19.938,0.548-40.047,0.286-60.077c-0.097-7.447-2.414-14.513-6.741-20.739
	c-7.127-10.253-17.861-14.04-29.362-15.834c-7.791-1.215-15.747-1.752-23.639-1.847C453.312,247.455,432.793,247.619,412,247.619z
	 M833,378.752c4.343,0,8.017,0.247,11.647-0.048c9.197-0.748,18.58-0.82,27.512-2.838c14.924-3.371,24.152-12.908,25.67-28.759
	c2.059-21.499,2.129-43.038-0.281-64.482c-1.699-15.113-9.967-25.929-24.738-30.199c-8.671-2.506-17.84-4.211-26.836-4.469
	c-22.791-0.653-45.611-0.289-68.42-0.312c-0.543-0.001-1.087,0.241-1.555,0.352c0,73.462,0,146.722,0,220.003
	c19.102,0,37.871,0,57,0C833,438.293,833,408.829,833,378.752z M696,468c19.266,0,38.033,0,57,0c0-73.461,0-146.681,0-220
	c-19.146,0-38.027,0-57,0C696,321.434,696,394.558,696,468z"/>
<path d="M388,249c0,0,0,219.523,0,219h-50V330.151c0,0-1.465-0.06-1.937-0.09C329.993,376.053,317.808,468,317.808,468h-35.8
	c0,0-13.15-92.226-19.717-138.478c-0.283,0.016-1.29,0.047-1.29,0.047V469h-50V248h74.204c4.765,33.317,9.535,66.244,14.305,99.17
	c0.28,0.013,0.56,0.026,0.84,0.039c4.265-32.853,8.531-65.707,12.829-98.21H388z"/>
<path style="fill:#FF0000;" d="M479.271,247.386c-34.96-35.057-67.448-71.331-82.527-119.529
	c-6.434-20.566-9.281-41.834-2.624-62.724c11.485-36.04,37.14-56.848,74.155-62.372c39.297-5.864,79.335,18.023,93.893,54.599
	c8.378,21.047,6.848,42.517,1.695,63.938c-4.454,18.516-12.639,35.489-22.578,51.628
	C524.298,200.506,502.865,224.403,479.271,247.386z M521.898,88.489c0.045-22.75-18.263-41.45-40.656-41.526
	c-23.008-0.078-41.677,18.187-41.778,40.874c-0.101,22.653,18.315,41.453,40.683,41.53
	C503.171,129.445,521.853,111.154,521.898,88.489z"/>
<path d="M134.125,314c0-8.233,0.343-16.208-0.106-24.138c-0.373-6.582-2.688-8.851-7.485-9.159
	c-5.124-0.329-8.871,2.675-10.215,8.511c-1.676,7.283-1.531,14.658,0.933,21.642c1.245,3.53,3.488,6.645,6.42,8.971
	c5.302,4.207,11.303,7.521,16.889,11.385c10.16,7.027,20.406,13.949,30.313,21.32c10.578,7.87,17.688,19.576,19.803,32.59
	c2.823,17.374,3.255,34.708,0.01,52.051c-1.9,10.153-7.37,17.883-15.877,23.592c-10.553,7.082-22.279,10.843-34.835,11.977
	c-15.477,1.398-30.711,0.445-45.27-5.685c-16.426-6.916-27.651-18.234-29.531-36.639c-1.361-13.32-1.825-26.731-2.71-40.419h54.332
	c0,8.322-0.09,16.555,0.036,24.786c0.068,4.42,0.383,8.847,0.813,13.249c0.425,4.344,2.879,7.012,7.288,7.672
	c4.752,0.712,8.858-1.071,10.708-5.265c1.228-2.785,2.243-5.918,2.294-8.914c0.103-6.037-0.277-12.111-0.903-18.124
	c-0.676-6.496-3.929-11.629-9.362-15.4c-13.353-9.268-26.438-18.94-40.035-27.833c-18.01-11.779-25.717-28.736-26.091-49.515
	c-0.151-8.397,0.369-16.844,1.175-25.211c1.748-18.144,11.68-30.585,28.555-36.622c24.333-8.705,48.729-8.059,72.566,2.389
	c13.194,5.782,21.429,15.609,22.753,30.278c0.966,10.702,1.4,21.451,2.092,32.509H134.125z"/>
<path d="M547.001,390c18.884,0,36.429,0,54.469,0c0,8.909-0.085,17.604,0.038,26.295c0.056,3.979,0.407,7.965,0.835,11.925
	c0.472,4.371,2.983,7.029,7.401,7.542c4.47,0.519,8.494-0.665,10.438-4.979c1.366-3.032,2.37-6.48,2.466-9.774
	c0.167-5.741-0.258-11.531-0.864-17.256c-0.685-6.47-3.728-11.741-9.177-15.535c-13.473-9.379-26.699-19.134-40.424-28.127
	c-18.026-11.811-25.657-28.82-26.018-49.608c-0.144-8.257,0.375-16.561,1.14-24.793c1.685-18.139,11.442-30.722,28.329-36.852
	c24.326-8.831,48.741-8.201,72.638,2.14c13.393,5.795,21.76,15.694,23.087,30.564c0.955,10.697,1.373,21.443,2.048,32.456
	c-18.516,0-36.059,0-54.167,0c0-1.826,0.042-3.546-0.007-5.263c-0.197-6.796-0.325-13.597-0.675-20.386
	c-0.201-3.888-1.954-6.876-6.146-7.589c-4.198-0.714-7.591,0.66-9.852,4.39c-5.43,8.956-2.417,28.335,5.856,34.785
	c5.343,4.166,11.373,7.438,16.953,11.314c10.682,7.42,21.464,14.719,31.829,22.564c10.365,7.845,16.048,18.687,18.249,31.474
	c2.759,16.03,2.89,32.076,0.77,48.17c-1.697,12.887-7.921,22.987-19.43,29.086c-27.808,14.737-56.099,15.025-84.248,1.12
	c-13.049-6.446-20.944-17.398-22.503-32.002C548.566,417.908,547.988,404.057,547.001,390z"/>
<path d="M412,247.619c20.793,0,41.312-0.164,61.826,0.083c7.891,0.095,15.848,0.632,23.639,1.847
	c11.501,1.793,22.236,5.58,29.362,15.834c4.327,6.226,6.644,13.292,6.741,20.739c0.262,20.029,1.096,40.139-0.286,60.077
	c-1.254,18.078-10.831,27.079-28.782,30.649c-5.857,1.165-11.904,1.528-17.886,1.845c-5.683,0.302-11.393,0.065-17.614,0.065
	c0,29.867,0,59.431,0,89.241c-19.237,0-37.949,0-57,0C412,394.738,412,321.478,412,247.619z M469,285.941
	c0,18.568,0,37.149,0,55.697c12.765,0.936,17.089-2.71,17.411-14.849c0.238-8.979,0.24-17.973,0.004-26.952
	C486.119,288.608,480.42,284.166,469,285.941z"/>
<path d="M833,378.752c0,30.077,0,59.542,0,89.248c-19.129,0-37.898,0-57,0c0-73.281,0-146.541,0-220.003
	c0.468-0.111,1.012-0.352,1.555-0.352c22.809,0.023,45.629-0.341,68.42,0.312c8.996,0.258,18.165,1.963,26.836,4.469
	c14.771,4.269,23.039,15.085,24.738,30.199c2.41,21.444,2.34,42.983,0.281,64.482c-1.518,15.85-10.747,25.388-25.67,28.759
	c-8.933,2.017-18.316,2.09-27.512,2.838C841.017,378.999,837.343,378.752,833,378.752z M834,285.943c0,18.568,0,37.15,0,55.697
	c12.771,0.929,17.089-2.714,17.41-14.854c0.238-8.979,0.24-17.974,0.004-26.952C851.118,288.608,845.41,284.161,834,285.943z"/>
<path d="M696,468c0-73.442,0-146.566,0-220c18.973,0,37.854,0,57,0c0,73.319,0,146.539,0,220C734.033,468,715.266,468,696,468z"/>
<path style="fill:#FFFFFF;" d="M521.898,88.489c-0.045,22.665-18.727,40.957-41.752,40.878
	c-22.368-0.077-40.784-18.877-40.683-41.53c0.101-22.687,18.77-40.952,41.778-40.874C503.635,47.039,521.943,65.739,521.898,88.489z
	"/>
<path style="fill:#FFFFFF;" d="M469,285.941c11.42-1.775,17.119,2.667,17.415,13.896c0.236,8.979,0.234,17.973-0.004,26.952
	c-0.322,12.139-4.646,15.785-17.411,14.849C469,323.091,469,304.509,469,285.941z"/>
<path style="fill:#FFFFFF;" d="M834,285.943c11.41-1.782,17.118,2.665,17.414,13.892c0.236,8.979,0.234,17.973-0.004,26.952
	c-0.321,12.14-4.64,15.782-17.41,14.854C834,323.093,834,304.511,834,285.943z"/>
</svg>
